<svg width="24" height="22" viewBox="0 0 24 22" fill="none" xmlns="http://www.w3.org/2000/svg">
<path d="M23.1069 8.31354C22.9569 7.84869 22.5453 7.51853 22.0583 7.47456L15.444 6.87292L12.8285 0.740363C12.6356 0.290926 12.1964 0 11.7084 0C11.2204 0 10.7812 0.290926 10.5884 0.741414L7.97287 6.87292L1.35746 7.47456C0.871394 7.51958 0.460859 7.84869 0.309969 8.31354C0.159078 8.77839 0.298429 9.28825 0.666127 9.60965L5.6658 14.0021L4.19151 20.5077C4.08364 20.9861 4.26897 21.4805 4.66517 21.7674C4.87813 21.9215 5.12728 22 5.37853 22C5.59517 22 5.81005 21.9415 6.0029 21.8259L11.7084 18.4099L17.4118 21.8259C17.8292 22.0774 18.3553 22.0545 18.7506 21.7674C19.147 21.4796 19.3322 20.985 19.2243 20.5077L17.75 14.0021L22.7497 9.61053C23.1174 9.28825 23.2578 8.77926 23.1069 8.31354Z" fill="#FFC107"/>
</svg>
