<svg width="20" height="28" viewBox="0 0 20 28" fill="none" xmlns="http://www.w3.org/2000/svg">
<path d="M10 0.388672C4.48597 0.388672 0 4.87464 0 10.3886C0 17.2316 8.94902 27.2776 9.33003 27.7019C9.68791 28.1005 10.3127 28.0998 10.67 27.7019C11.051 27.2776 20 17.2316 20 10.3886C19.9999 4.87464 15.514 0.388672 10 0.388672ZM10 15.4199C7.22575 15.4199 4.9688 13.1629 4.9688 10.3886C4.9688 7.61437 7.22581 5.35742 10 5.35742C12.7742 5.35742 15.0311 7.61443 15.0311 10.3887C15.0311 13.1629 12.7742 15.4199 10 15.4199Z" fill="#017AD3"/>
</svg>
