<svg width="16" height="15" viewBox="0 0 16 15" fill="none" xmlns="http://www.w3.org/2000/svg">
<path d="M15.6524 5.35637C15.5557 5.05687 15.2905 4.84415 14.9768 4.81583L10.7152 4.42819L9.03004 0.477012C8.90578 0.187442 8.6228 0 8.30839 0C7.99398 0 7.711 0.187442 7.58675 0.477689L5.90159 4.42819L1.63931 4.81583C1.32614 4.84483 1.06164 5.05687 0.964419 5.35637C0.867201 5.65587 0.956984 5.98438 1.19389 6.19145L4.41516 9.02148L3.46528 13.213C3.39577 13.5212 3.51519 13.8398 3.77045 14.0246C3.90766 14.1239 4.06819 14.1745 4.23007 14.1745C4.36965 14.1745 4.5081 14.1368 4.63235 14.0623L8.30839 11.8614L11.9831 14.0623C12.252 14.2244 12.5909 14.2096 12.8457 14.0246C13.101 13.8392 13.2203 13.5205 13.1508 13.213L12.2009 9.02148L15.4222 6.19202C15.6591 5.98438 15.7496 5.65644 15.6524 5.35637Z" fill="#F9D057"/>
</svg>
