<svg width="15" height="15" viewBox="0 0 15 15" fill="none" xmlns="http://www.w3.org/2000/svg">
<path d="M14.4853 5.51048L14.4851 5.50994C14.4498 5.40061 14.3538 5.32404 14.2404 5.3138L14.2401 5.31377L9.97849 4.92613L9.68104 4.89908L9.56386 4.62434L7.87915 0.674177C7.87909 0.674055 7.87904 0.673933 7.87899 0.673811C7.83299 0.567 7.73005 0.5 7.61698 0.5C7.50404 0.5 7.40112 0.566874 7.35506 0.674313C7.35503 0.674364 7.35501 0.674414 7.35499 0.674465L5.67009 4.62437L5.55291 4.89908L5.25547 4.92614L0.994014 5.3137C0.993909 5.31371 0.993804 5.31371 0.9937 5.31372C0.880223 5.32436 0.784289 5.40075 0.748585 5.51074C0.712769 5.62108 0.746206 5.74041 0.831543 5.815L0.83249 5.81583L4.05376 8.64585L4.27709 8.84206L4.21139 9.13199L3.26162 13.323C3.26161 13.3231 3.26159 13.3232 3.26157 13.3233C3.23588 13.4376 3.28019 13.5529 3.3722 13.6196C3.42375 13.6569 3.4816 13.6745 3.53866 13.6745C3.58743 13.6745 3.63707 13.6615 3.68388 13.6335L3.6841 13.6333L7.36014 11.4324L7.61703 11.2786L7.8739 11.4325L11.5486 13.6334L11.5498 13.6341C11.6461 13.6921 11.7677 13.6874 11.8605 13.6201L11.8605 13.62C11.9534 13.5526 11.9973 13.4368 11.9718 13.3235L14.4853 5.51048ZM14.4853 5.51048C14.521 5.62055 14.4879 5.74005 14.4012 5.816L14.4008 5.81636L11.1796 8.64582L10.9562 8.84203L11.0219 9.13199L11.9717 13.3233L14.4853 5.51048Z" stroke="#F9D057"/>
</svg>
