<svg width="10" height="10" viewBox="0 0 10 10" fill="none" xmlns="http://www.w3.org/2000/svg">
<path d="M8.53712 1.46288C6.58621 -0.487626 3.41347 -0.487626 1.46256 1.46288C-0.487519 3.41338 -0.487519 6.58694 1.46256 8.53744C2.43801 9.51249 3.71902 9.99979 5.00005 9.99979C6.28108 9.99979 7.56166 9.51247 8.53712 8.53744C10.4876 6.58696 10.4876 3.41338 8.53712 1.46288ZM7.06309 6.47398C7.22608 6.63696 7.22608 6.90043 7.06309 7.06341C6.9818 7.1447 6.87509 7.18556 6.76836 7.18556C6.66165 7.18556 6.55492 7.1447 6.47364 7.06341L5.00003 5.58938L3.52684 7.06298C3.44514 7.14427 3.33842 7.18513 3.23212 7.18513C3.12541 7.18513 3.01868 7.14427 2.93739 7.06298C2.7744 6.9 2.7744 6.63612 2.93739 6.47355L4.41058 4.99995L2.93698 3.52634C2.77399 3.36336 2.77399 3.09949 2.93698 2.93691C3.09955 2.77392 3.36343 2.77392 3.52641 2.93691L5.00001 4.41051L6.47362 2.93691C6.6366 2.77392 6.90007 2.77392 7.06305 2.93691C7.22604 3.09949 7.22604 3.36336 7.06305 3.52634L5.58945 4.99995L7.06309 6.47398Z" fill="#EA674A"/>
</svg>
